HIERARCHY
ROOT Hips
{
	OFFSET -0.179506 -22.333345 2.821913
	CHANNELS 6 Xposition Yposition Zposition Zrotation Yrotation Xrotation 
	JOINT LeftUpLeg
	{
		OFFSET 6.951974 -9.140623 -0.681533
		CHANNELS 3 Zrotation Yrotation Xrotation
		JOINT LeftLeg
		{
			OFFSET 3.427654 -37.519855 -0.449580
			CHANNELS 3 Zrotation Yrotation Xrotation
			JOINT LeftFoot
			{
				OFFSET -1.359570 -39.796059 -4.369333
				CHANNELS 3 Zrotation Yrotation Xrotation
				JOINT LeftToe
				{
					OFFSET 2.635814 -5.579078 11.928840
					CHANNELS 3 Zrotation Yrotation Xrotation
					End Site
					{
						OFFSET 0.000000 0.000000 0.000000
					}
				}
			}
		}
	}
	JOINT RightUpLeg
	{
		OFFSET -6.767048 -9.052170 -0.431982
		CHANNELS 3 Zrotation Yrotation Xrotation
		JOINT RightLeg
		{
			OFFSET -3.829005 -38.256897 -0.885003
			CHANNELS 3 Zrotation Yrotation Xrotation
			JOINT RightFoot
			{
				OFFSET 1.577377 -39.841461 -4.231180
				CHANNELS 3 Zrotation Yrotation Xrotation
				JOINT RightToe
				{
					OFFSET -2.537174 -4.814398 12.334795
					CHANNELS 3 Zrotation Yrotation Xrotation
					End Site
					{
						OFFSET 0.000000 0.000000 0.000000
					}
				}
			}
		}
	}
	JOINT Spine
	{
		OFFSET -0.253288 10.896323 -2.669631
		CHANNELS 3 Zrotation Yrotation Xrotation
		JOINT Spine1
		{
			OFFSET 0.548704 13.518043 0.109247
			CHANNELS 3 Zrotation Yrotation Xrotation
			JOINT Spine2
			{
				OFFSET 0.145701 5.292222 2.542457
				CHANNELS 3 Zrotation Yrotation Xrotation
				JOINT Neck
				{
					OFFSET -0.277840 21.387037 -4.285703
					CHANNELS 3 Zrotation Yrotation Xrotation
					JOINT Head
					{
						OFFSET 0.515184 6.496960 5.134897
						CHANNELS 3 Zrotation Yrotation Xrotation
						End Site
						{
							OFFSET 0.000000 0.000000 0.000000
						}
					}
				}
				JOINT LeftShoulder
				{
					OFFSET 7.884473 12.174932 -3.408961
					CHANNELS 3 Zrotation Yrotation Xrotation
					JOINT LeftArm
					{
						OFFSET 9.097692 3.046888 -0.886815
						CHANNELS 3 Zrotation Yrotation Xrotation
						JOINT LeftForeArm
						{
							OFFSET 25.961220 -1.277207 -2.745643
							CHANNELS 3 Zrotation Yrotation Xrotation
							JOINT LeftHand
							{
								OFFSET 24.923361 0.898606 -0.117091
								CHANNELS 3 Zrotation Yrotation Xrotation
								End Site
								{
									OFFSET 0.000000 0.000000 0.000000
								}
							}
						}
					}
				}
				JOINT RightShoulder
				{
					OFFSET -8.175920 11.883285 -3.861528
					CHANNELS 3 Zrotation Yrotation Xrotation
					JOINT RightArm
					{
						OFFSET -9.601238 3.255117 -0.914307
						CHANNELS 3 Zrotation Yrotation Xrotation
						JOINT RightForeArm
						{
							OFFSET -25.374195 -1.332924 -2.140099
							CHANNELS 3 Zrotation Yrotation Xrotation
							JOINT RightHand
							{
								OFFSET -25.529810 0.777228 -0.555919
								CHANNELS 3 Zrotation Yrotation Xrotation
								End Site
								{
									OFFSET 0.000000 0.000000 0.000000
								}
							}
						}
					}
				}
			}
		}
	}
}
MOTION
Frames: 14
Frame Time: 0.033333
-42.749210 -277.010498 91.381477 -179.909980 0.998195 88.103336 -0.837036 3.359113 3.014697 -3.448989 -2.721153 7.777826 7.900137 11.178192 -17.147559 nan nan nan 0.136549 -4.667413 2.754839 2.901178 2.657643 5.477180 0.536618 -5.830140 -13.568182 nan nan nan 0.813392 0.888744 6.114068 1.198719 -3.004963 2.905347 0.613874 -0.928578 -0.024576 2.103024 3.188877 -1.818268 -0.886068 -0.876059 7.113752 -27.991284 -0.165483 3.097495 -57.051885 -6.511943 9.623380 3.251762 -24.676230 13.706183 -5.840333 -7.679058 -3.207262 26.591032 2.812107 4.555150 59.628349 4.175085 12.998876 -15.605183 26.837391 -2.959899 2.986518 3.937204 -4.544769 
-42.749603 -276.991638 91.379471 -179.920595 1.008128 88.122418 -0.832829 3.360469 3.044368 -3.449892 -2.742761 7.709700 7.915606 11.216109 -17.122587 nan nan nan 0.148771 -4.565534 2.777181 2.887681 2.659740 5.415121 0.707601 -5.901927 -13.585613 nan nan nan 0.802171 0.830974 6.099983 1.211637 -2.962727 2.927570 0.610357 -0.922686 -0.012945 2.109689 3.257127 -1.920589 -0.920926 -0.840433 7.216092 -27.996332 -0.137604 3.115727 -57.042195 -6.520552 9.633311 3.293386 -24.767006 13.700862 -5.823050 -7.624877 -3.297106 26.544039 2.809466 4.542279 59.706752 4.234297 13.015689 -15.648766 26.782963 -2.984941 3.033723 3.831440 -4.562081 
-42.752872 -276.981201 91.378609 -179.932188 1.005365 88.140469 -0.829117 3.387152 3.048278 -3.458344 -2.739870 7.687619 7.914244 11.221014 -17.125669 nan nan nan 0.148743 -4.542948 2.756619 2.884908 2.675875 5.431594 0.755461 -5.902752 -13.622078 nan nan nan 0.782675 0.828479 6.088931 1.215060 -2.940390 2.931898 0.616286 -0.922576 -0.016146 2.107923 3.267497 -1.928024 -0.922676 -0.841072 7.230315 -27.997115 -0.135785 3.141493 -57.021351 -6.524623 9.624044 3.289726 -24.787399 13.684585 -5.789053 -7.582301 -3.293872 26.566293 2.806607 4.557138 59.698660 4.245030 13.008805 -15.640199 26.777668 -2.998200 3.050414 3.796313 -4.559052 
-42.760300 -276.967438 91.379524 -179.916092 0.984857 88.159471 -0.819974 3.461979 3.052671 -3.489102 -2.733914 7.657818 7.893354 11.199870 -17.190470 nan nan nan 0.099779 -4.551679 2.711870 2.941019 2.683742 5.520882 0.839156 -5.817681 -13.780622 nan nan nan 0.758169 0.883030 6.053957 1.199231 -2.888892 2.961457 0.609373 -0.949592 -0.007925 2.085595 3.260028 -1.927970 -0.909794 -0.863239 7.222117 -27.993960 -0.283644 3.263257 -56.964465 -6.541261 9.601298 3.333897 -24.823273 13.603935 -5.687020 -7.461918 -3.206878 26.641952 2.854342 4.611497 59.668199 4.219145 12.933707 -15.648570 26.782084 -3.053637 3.027445 3.732873 -4.471291 
-42.783642 -276.975952 91.386436 -179.861906 1.008715 88.170111 -0.814057 3.437732 3.029610 -3.463293 -2.745787 7.674443 7.897638 11.138519 -17.166508 nan nan nan 0.089569 -4.553802 2.748905 2.963228 2.631331 5.447003 0.839358 -5.741929 -13.685846 nan nan nan 0.821223 0.920542 6.091429 1.176793 -2.862440 2.960452 0.599196 -0.984976 0.001335 2.050159 3.229479 -1.965582 -0.870000 -0.839211 7.219522 -27.966821 -0.453947 3.353662 -56.948362 -6.587219 9.621188 3.291847 -24.777763 13.585769 -5.578950 -7.469387 -3.178533 26.558304 2.953070 4.588866 59.738997 4.152949 12.942393 -15.648883 26.797144 -3.016558 2.957874 3.715771 -4.443566 
-42.803551 -276.980835 91.393707 -179.821920 1.014907 88.194813 -0.845660 3.382362 3.002988 -3.435304 -2.795872 7.678735 7.938402 11.117550 -17.177480 nan nan nan 0.067707 -4.553919 2.806556 2.971291 2.573049 5.310826 0.831614 -5.726422 -13.552719 nan nan nan 0.852353 0.908259 6.163848 1.151934 -2.872976 2.908596 0.594545 -0.961120 -0.005691 2.026684 3.230418 -2.029886 -0.849725 -0.819031 7.227579 -27.927717 -0.475341 3.314245 -56.911856 -6.619277 9.638449 3.179719 -24.704237 13.761563 -5.611367 -7.539696 -3.092120 26.447269 2.996442 4.553773 59.844256 4.094301 12.989455 -15.605414 26.795374 -2.903134 2.910238 3.723945 -4.446148 
-42.810139 -276.953308 91.394318 -179.851446 1.003835 88.195814 -0.876812 3.418431 3.083874 -3.424873 -2.858976 7.586126 7.952956 11.157121 -17.195945 nan nan nan 0.051391 -4.570886 2.866515 2.958587 2.582281 5.234419 0.866146 -5.709754 -13.578253 nan nan nan 0.829895 0.887445 6.147426 1.120709 -2.872415 2.969463 0.597460 -0.898912 -0.033763 2.040771 3.254333 -2.040246 -0.835811 -0.807473 7.227659 -27.891954 -0.454605 3.268117 -56.880743 -6.616068 9.659483 3.102347 -24.703020 13.936168 -5.602466 -7.505420 -2.986914 26.452685 3.016982 4.626832 59.873810 4.108143 12.966240 -15.623987 26.813272 -2.936083 2.923129 3.690684 -4.484898 
-42.800499 -276.920929 91.386078 -179.895435 1.012825 88.197422 -0.833058 3.501198 3.149629 -3.455676 -2.835434 7.516526 7.918018 11.140066 -17.225602 nan nan nan 0.067888 -4.573562 2.914266 2.925291 2.645161 5.197388 0.951673 -5.603769 -13.667149 nan nan nan 0.811456 0.885652 6.129147 1.114904 -2.869730 2.992554 0.584648 -0.841786 -0.051127 2.070765 3.279139 -1.990340 -0.816549 -0.820528 7.243735 -27.837758 -0.438778 3.244489 -56.900186 -6.617909 9.691438 3.083087 -24.702632 13.955268 -5.557609 -7.466525 -2.953272 26.468175 3.016727 4.636299 59.897133 4.149628 12.947670 -15.551243 26.723549 -2.957152 3.029153 3.692636 -4.583411 
-42.794941 -276.889435 91.377029 -179.954831 1.036518 88.204459 -0.808845 3.569747 3.232037 -3.417723 -2.827358 7.409504 7.927005 11.142873 -17.254715 nan nan nan 0.097890 -4.557448 2.948580 2.891078 2.672290 5.152933 1.088403 -5.498106 -13.660589 nan nan nan 0.817772 0.889276 6.088813 1.122089 -2.856859 3.030433 0.579498 -0.797068 -0.047832 2.103436 3.312588 -1.965366 -0.820163 -0.823330 7.231172 -27.777933 -0.421933 3.212938 -56.940475 -6.601826 9.724884 3.089283 -24.717644 13.930424 -5.537141 -7.380467 -2.841671 26.451266 3.036088 4.586957 59.913021 4.221874 12.978408 -15.398096 26.533383 -2.856906 3.277457 3.756106 -4.536305 
-42.784031 -276.865051 91.354324 179.941548 1.077238 88.271721 -0.785246 3.549607 3.250752 -3.380357 -2.760362 7.282407 7.986208 11.241356 -17.231662 nan nan nan 0.138969 -4.472964 2.857626 2.900497 2.599612 5.192227 1.196643 -5.469225 -13.601243 nan nan nan 0.791877 0.938809 5.956867 1.153080 -2.783346 3.107439 0.619145 -0.790875 -0.022548 2.106108 3.358682 -2.015670 -0.841401 -0.820720 7.193068 -27.682834 -0.447696 3.215690 -57.047430 -6.602506 9.767471 3.110740 -24.748654 13.809746 -5.623918 -7.292504 -2.851735 26.358786 3.032456 4.561797 59.962271 4.316709 13.045711 -15.317254 26.405015 -2.742755 3.654560 3.873226 -4.530882 
-42.813385 -276.893280 91.357216 -179.876512 1.081247 88.306691 -0.825700 3.439030 3.130567 -3.337747 -2.810795 7.365133 8.004921 11.237191 -17.226446 nan nan nan 0.113471 -4.506842 2.840680 2.937419 2.469601 5.155260 1.214467 -5.583369 -13.516724 nan nan nan 0.820698 0.912949 6.049761 1.159002 -2.843065 3.036144 0.625137 -0.856918 -0.018105 2.083414 3.375526 -2.137560 -0.878105 -0.802860 7.218105 -27.713110 -0.476147 3.199544 -57.044774 -6.622313 9.765571 3.111923 -24.792377 13.684886 -5.607282 -7.299779 -2.903502 26.346243 3.035827 4.540142 59.930293 4.296584 13.107348 -15.362853 26.446301 -2.726692 3.554667 3.884273 -4.458373 
-42.804024 -276.874390 91.354683 -179.822839 1.079865 88.340449 -0.783216 3.440262 3.143920 -3.407626 -2.870640 7.297936 7.994286 11.184619 -17.225319 nan nan nan 0.109522 -4.516292 2.890628 2.960318 2.492579 5.044150 1.205629 -5.602189 -13.489872 nan nan nan 0.787970 0.883144 6.058768 1.173890 -2.874910 2.977020 0.634347 -0.843819 0.009969 2.093952 3.406951 -2.147038 -0.899274 -0.782321 7.186172 -27.729968 -0.430640 3.177545 -57.035637 -6.597411 9.744263 3.142233 -24.879152 13.619784 -5.452411 -7.323996 -2.978504 26.345713 3.025171 4.607579 59.959756 4.284481 13.130832 -15.496354 26.504314 -2.706036 3.228057 3.737397 -4.441316 
-42.790394 -276.842072 91.348961 -179.846400 1.065724 88.396576 -0.757898 3.472627 3.197755 -3.473050 -2.930693 7.149360 7.997726 11.137111 -17.193646 nan nan nan 0.081356 -4.525741 2.888339 2.970758 2.566078 4.982309 1.223115 -5.530447 -13.448150 nan nan nan 0.741706 0.860769 6.021957 1.174147 -2.873410 2.911903 0.637492 -0.790100 0.040871 2.130936 3.427484 -2.087806 -0.894624 -0.751752 7.131947 -27.730972 -0.332639 3.138321 -57.011378 -6.560038 9.729387 3.160386 -24.953380 13.651466 -5.410664 -7.300558 -2.975690 26.367830 2.965622 4.640167 59.975722 4.302203 13.141434 -15.541513 26.481787 -2.610041 3.077187 3.583771 -4.381198 
-42.794914 -276.831909 91.340508 -179.781743 1.049863 88.427436 -0.761904 3.471154 3.184400 -3.494369 -2.953990 7.122595 8.015725 11.088266 -17.196545 nan nan nan 0.043567 -4.551458 2.934032 2.970584 2.612607 4.854332 1.263827 -5.500343 -13.469411 nan nan nan 0.707812 0.850234 6.040179 1.178027 -2.909195 2.861139 0.645273 -0.795358 0.080290 2.160760 3.438266 -2.143127 -0.904918 -0.773813 7.189669 -27.700833 -0.280868 3.064141 -57.024284 -6.600438 9.763839 3.157640 -24.909259 13.741295 -5.401000 -7.290740 -2.877843 26.365191 2.892321 4.569456 59.974454 4.301632 13.180367 -15.507662 26.475446 -2.570018 3.045323 3.563354 -4.386194 
